# xmcd
# Copyright (C) 1995-1998 Ti Kan
#
# Track frame offsets:
#       150
#       92228
#       178855
#       251257
#
# Disc length: 3401 seconds
#
# Revision: 0
# Processed by: cddbd v1.5.2PL0 Copyright (c) Steve Scherf et al.
# Submitted via: CD-Import v1.0
#
DISCID=2c0d4704
DTITLE=Andrew - 
DYEAR=1900
DGENRE=
TTITLE0=Ferienfilter Teil 1
TTITLE1=Ferienfilter Teil2
TTITLE2=Ferienfilter Teil3
TTITLE3=Super700 Teaser
EXTD=
EXTT0=
EXTT1=
EXTT2=
EXTT3=
PLAYORDER=
